<svg width="50" height="50" viewBox="0 0 94 95" fill="none" xmlns="http://www.w3.org/2000/svg">
<path d="M0.5 91.6546C0.5 93.0353 1.61929 94.1546 3 94.1546C4.38071 94.1546 5.5 93.0353 5.5 91.6546H0.5ZM3 3.15456L3 0.654557C1.61929 0.654557 0.5 1.77384 0.5 3.15456H3ZM91.5 91.6546L89.7322 93.4223C90.4472 94.1373 91.5225 94.3512 92.4567 93.9643C93.3909 93.5773 94 92.6657 94 91.6546H91.5ZM91.5 3.15456H94C94 2.1434 93.3909 1.23181 92.4567 0.844858C91.5225 0.457905 90.4472 0.671795 89.7322 1.38679L91.5 3.15456ZM94 91.6546V3.15456H89V91.6546H94ZM1.23223 4.92232L45.4822 49.1723L49.0178 45.6368L4.76777 1.38679L1.23223 4.92232ZM45.4822 49.1723L89.7322 93.4223L93.2678 89.8868L49.0178 45.6368L45.4822 49.1723ZM89.7322 1.38679L45.4822 45.6368L49.0178 49.1723L93.2678 4.92232L89.7322 1.38679ZM5.5 91.6546V47.4045H0.5V91.6546H5.5ZM5.5 47.4045V3.15456H0.5V47.4045H5.5ZM3 49.9045H47.25V44.9045H3V49.9045ZM3 5.65456C14.4953 5.65456 24.4987 5.02825 32.8754 6.29776C41.0506 7.53674 47.0636 10.5098 50.8066 17.3541L55.1934 14.955C50.4364 6.25644 42.6994 2.72952 33.6246 1.35421C24.7513 0.00943708 14.0047 0.654555 3 0.654557L3 5.65456ZM50.8066 17.3541C54.7332 24.5342 54.6044 30.2178 53.0455 34.6918C51.4395 39.3005 48.2258 42.8932 45.4822 45.6368L49.0178 49.1723C51.8575 46.3326 55.7688 42.0717 57.767 36.337C59.8123 30.4675 59.7668 23.3178 55.1934 14.955L50.8066 17.3541Z" fill="white"/>
</svg>
